<svg version="1.2" xmlns="http://www.w3.org/2000/svg" viewBox="0 0 1950 700" width="1950" height="700">
	<style>
		.s0 { fill: #361c1c } 
		.s1 { fill: #2a2a2a } 
	</style>
	<path class="s0" d="m569.98 569.29c-78.5-33.79-149.44-82.13-218.69-131.65-34.85-24.93-69.41-50.29-104.71-74.59-25.59-17.61-52.08-34.81-79.84-49.1-5.58-2.87-11.38-6.14-16.19-10.37-5.3-4.65-10.05-10.02-14.92-15.1 4.28 0.16 8.56-0.9 12.83-1.44 11.41-1.45 22.76 1.22 34.15 1.47 28.19 0.6 58.03-10.81 83.75-21.22 25.92-10.49 50.87-23.15 76.61-34.07 91.29-38.74 183.57-71.58 280.17-92.72 124.36-27.2 249.26-59.81 377.66-54.52 91.95 3.78 182.86 27.63 265.33 68.36 41.74 20.62 81.35 45.58 117.87 74.48 35.49 28.07 60.2 60.24 86.74 96.73 16.59 22.81 44.39 34.6 72.02 35.45 16.15 0.51 32.25-1.83 48.29-3.85 55.5-7.01 110.86-11.19 166.67-14.81l43.32-2.8c9.68-0.63 22.98-3.85 32.95-1.01q-4.06 13.18-7.05 26.6c-4.4 0.02-8.81-0.1-13.21-0.63-3.19-0.38-6.4-0.65-9.61-0.72-6.44-0.14-12.87-0.07-19.31-0.17-2.75-0.05-5.52-0.15-8.25-0.52-8.01-1.11-16.11-1.15-24.08-0.37-7.35 0.72-14.66 0.86-22.01 1.01-2.53 0.05-5.06 0.07-7.58 0.3-7.77 0.71-15.52 1.9-23.3 2.2-11.05 0.43-21.98 1.6-32.93 2.9-4.79 0.56-9.59 1.14-14.4 1.41-8.48 0.46-16.94 1.32-25.41 1.94-8.21 0.6-16.55 0.61-24.65 2.5-3.8 0.89-7.58 1.93-11.44 2.49-9.34 1.35-18.49 3.56-27.62 5.89-49.39 12.62-79.17 70.95-113.88 105.18-38.78 38.24-81.55 72.45-127.43 101.83-28.77 18.42-59.04 35.08-91.76 44.95-19.72 5.95-40.12 9.37-60.52 12.21-199.42 27.77-414.08 1.6-599.57-78.24z"/>
	<path class="s1" d="m1851.22 339.7c-33.3 0.39-66.36 1.33-99.54 2.77-33.15 1.48-66.3 3.38-99.46 6.39-16.58 1.58-33.16 3.21-49.77 5.61l-24.45 3.35c-8.11 1.05-16.27 1.93-24.41 2.88-32.67 3.47-65.54 6.08-98.43 8.33-65.81 4.39-131.84 7.71-197.72 9.5-16.46 0.55-32.68 0.18-49.24-0.16l-49.52-1.27-99.09-3.07c-66.05-2.2-132.11-4.59-198.15-7.28-33.01-1.38-66.03-2.77-99.02-4.48-16.48-0.86-33-1.7-49.38-2.99-16.43-1.31-33.01-2.69-49.49-3.74-65.98-4.41-131.96-8.28-197.89-12.96-32.98-2.31-65.93-4.86-98.85-7.72-32.91-2.9-65.83-6.07-98.56-10.68 32.66 5.1 65.53 8.78 98.42 12.18 32.88 3.37 65.82 6.41 98.75 9.23 65.87 5.68 131.82 10.56 197.68 15.96 16.5 1.32 32.84 2.91 49.33 4.5 16.56 1.55 33.04 2.64 49.54 3.75 33.02 2.21 66.02 4.12 99.03 5.98 66.02 3.71 132.06 7.1 198.1 10.31l99.09 4.57 49.59 2.04c16.47 0.59 33.29 1.21 49.9 0.92 66.29-0.8 132.39-3.12 198.57-6.52 33.09-1.76 66.16-3.88 99.28-6.88 8.29-0.85 16.58-1.62 24.88-2.55l24.72-3c16.14-2.09 32.5-3.44 48.83-4.76 32.73-2.47 65.63-3.85 98.53-4.81 32.89-0.94 65.93-1.37 98.73-1.25z"/>
</svg>